<svg xmlns="http://www.w3.org/2000/svg" viewBox="0 0 292.83 45.68"><defs><style>.cls-1{fill:#2a3f5e;}.cls-2{fill:#fff;}</style></defs><title>Asset 5</title><g id="Layer_2" data-name="Layer 2"><g id="Layer_1-2" data-name="Layer 1"><polygon class="cls-1" points="0 16.6 0 45.68 0.95 45.68 4.98 43.77 4.98 14.69 4.17 14.69 0 16.6"/><path class="cls-1" d="M45.72,15.44h-5.8a6.72,6.72,0,0,0-4.65,1.5,6.55,6.55,0,0,0-4.7-1.5h-5.8c-4.69,0-7.17,2.48-7.17,7.17V45.68h.81l4.17-1.91V22.61c0-2.27,1.17-2.56,2.19-2.56h5.8c1,0,2.18.29,2.18,2.56V45.68h.81l4.17-1.91V22.61c0-2.27,1.17-2.56,2.19-2.56h5.8c1,0,2.19.29,2.19,2.56V45.68h.94l4-1.91V22.61C52.89,17.92,50.41,15.44,45.72,15.44Z"/><path class="cls-1" d="M93.63,15.44h-5.8a6.73,6.73,0,0,0-4.66,1.5,6.53,6.53,0,0,0-4.7-1.5h-5.8c-4.69,0-7.16,2.48-7.16,7.17V45.68h.8l4.18-1.91V22.61c0-2.27,1.17-2.56,2.18-2.56h5.8c1,0,2.19.29,2.19,2.56V45.68h.81l4.17-1.91V22.61c0-2.27,1.17-2.56,2.19-2.56h5.8c1,0,2.19.29,2.19,2.56V45.68h.94l4-1.91V22.61C100.8,17.92,98.32,15.44,93.63,15.44Z"/><path class="cls-1" d="M128.57,16.6V37.76c0,2.27-1.17,2.57-2.19,2.57h-5.8c-1,0-2.18-.3-2.18-2.57V14.69h-.81l-4.18,1.91V37.76c0,4.69,2.48,7.17,7.17,7.17h5.8c4.69,0,7.17-2.48,7.17-7.17V14.69h-.81Z"/><path class="cls-1" d="M159.14,15.44h-5.8c-4.69,0-7.17,2.48-7.17,7.17V45.68H147l4.17-1.91V22.61c0-2.27,1.17-2.56,2.19-2.56h5.8c1,0,2.18.29,2.18,2.56V45.68h1l4-1.91V22.61C166.3,17.92,163.83,15.44,159.14,15.44Z"/><polygon class="cls-1" points="183.9 32.51 192.26 32.51 193.95 28.93 194 27.86 183.9 27.86 183.9 20.08 192.26 20.08 193.95 16.51 194 15.44 181.52 15.44 178.92 16.6 178.92 44.93 195.39 44.93 197.07 41.36 197.13 40.29 183.9 40.29 183.9 32.51"/><path class="cls-2" d="M291.68,38.92H277.87a2.3,2.3,0,0,1-2.2-2.38V1.66h-.83a1.13,1.13,0,0,0-.48.11l-4.71,2.34A1.24,1.24,0,0,0,269,5.24V42.36A3.19,3.19,0,0,0,272,45.68h17.78a1.14,1.14,0,0,0,1-.72l1.86-4.26a1.47,1.47,0,0,0,.11-.46A1.21,1.21,0,0,0,291.68,38.92Z"/><path class="cls-2" d="M217,.78v0a1.8,1.8,0,0,0-2.84-.13l-1.55,1.71a1.58,1.58,0,0,0-.07,2l11.59,15a10.55,10.55,0,0,1,2.07,6.41v14.1a2,2,0,0,0,1.69,2.17h1.75a2,2,0,0,0,1.7-2.17V25.65a18.16,18.16,0,0,0-3.57-11.06Z"/><path class="cls-2" d="M214.29,11.84,209.76,6a14.85,14.85,0,0,0-1.13,6.17V44.58c0,.8.65,1.33,1.22,1l3.22-1.87a2.77,2.77,0,0,0,1.22-2.43v-19l6.1,7.82,1.9-2.33a4.71,4.71,0,0,0,.05-5.57Z"/><path class="cls-2" d="M251.59,2.34,250,.63a1.8,1.8,0,0,0-2.84.13v0L236.44,14.59a18.09,18.09,0,0,0-3.57,11.06v14.1a2,2,0,0,0,1.69,2.17h1.75a2,2,0,0,0,1.7-2.17V25.65a10.54,10.54,0,0,1,2.06-6.41L251.66,4.29A1.55,1.55,0,0,0,251.59,2.34Z"/><path class="cls-2" d="M249.89,11.84l-8,10.31a4.7,4.7,0,0,0,0,5.57l1.9,2.33,6.1-7.82V41.28a2.79,2.79,0,0,0,1.22,2.43l3.23,1.87c.57.33,1.21-.2,1.21-1V12.2A14.85,14.85,0,0,0,254.42,6Z"/></g></g></svg>