<?xml version="1.0" encoding="UTF-8"?>
<svg width="902px" height="151px" viewBox="0 0 902 151" version="1.1" xmlns="http://www.w3.org/2000/svg" xmlns:xlink="http://www.w3.org/1999/xlink">
    <title>webnma-logo 2</title>
    <g id="Page-1" stroke="none" stroke-width="1" fill="none" fill-rule="evenodd">
        <g id="webnma-logo">
            <path d="M579.939801,150.167303 L552.647369,150.167303 L552.647369,100.354193 C552.647369,96.3027269 552.468798,92.2607489 552.111655,88.228259 C551.975139,85.1849804 551.364767,82.180264 550.301812,79.3188285 C549.417632,77.2501913 547.838479,75.5421862 545.82788,74.4798407 C543.277504,73.3428087 540.487825,72.8207175 537.690826,72.9569828 C535.11855,72.9758118 532.571597,73.4582018 530.176358,74.3802145 C527.230615,75.5533033 524.447863,77.0883735 521.894517,78.9487883 L521.894517,150.21 L494.66,150.21 L494.66,49.630215 L521.952432,49.630215 L521.952432,60.7314224 C526.130138,56.7319018 530.810942,53.2738743 535.880983,50.4414571 C540.43657,48.0234377 545.544833,46.7889277 550.721696,46.8549132 C559.891567,46.8549132 567.048893,50.0192317 572.193673,56.3478687 C577.338453,62.6765057 579.920496,72.1362525 579.939801,84.727109 L579.939801,150.167303 Z" id="Path" fill="#A85260"></path>
            <path d="M683.21668,78.9060913 L683.21668,150.167303 L655.866333,150.167303 L655.866333,99.941456 C655.866333,95.0455389 655.764982,90.8897023 655.562279,87.4454816 C655.480056,84.5848295 654.917458,81.757199 653.897224,79.0768791 C653.133542,77.0832848 651.676944,75.4195664 649.785261,74.3802145 C644.79624,72.2495486 639.100552,72.4165196 634.249569,74.8356486 C631.880499,76.0226211 629.60573,77.3832829 627.444559,78.9060913 L627.444559,150.167303 L600.210042,150.167303 L600.210042,49.630215 L627.502474,49.630215 L627.502474,60.7314224 C631.571346,56.8381033 636.079324,53.414388 640.938748,50.526851 C645.246942,48.0719518 650.148476,46.8035104 655.127917,46.8549132 C660.41103,46.7647814 665.588679,48.3135511 669.925193,51.2811638 C674.477039,54.5837241 677.96538,59.1046273 679.973441,64.303734 C684.737834,59.41879 690.085497,55.1178973 695.900059,51.4946486 C700.359545,48.6092536 705.548824,47.0025751 710.885559,46.8549132 C720.036125,46.8549132 726.990749,50.1046256 731.749429,56.6040504 C736.508109,63.1034752 738.88745,72.4778281 738.88745,84.727109 L738.88745,150.195768 L711.638454,150.195768 L711.638454,99.941456 C711.638454,94.9886096 711.551581,90.8090525 711.377837,87.4027846 C711.315277,84.5565156 710.762066,81.741292 709.741739,79.0768791 C709.01383,77.075877 707.566838,75.4054841 705.673212,74.3802145 C703.206268,73.2939366 700.510029,72.8058428 697.811254,72.9569828 C695.514907,72.9732418 693.246994,73.4578752 691.151032,74.3802145 C688.364696,75.6351992 685.707669,77.1508085 683.21668,78.9060913 Z" id="Path" fill="#A85260"></path>
            <path d="M886.015403,119.362399 L901.760859,119.362399 C896.711753,128.79326 888.778341,136.443045 879.070278,141.241772 C867.392002,147.296734 853.148945,150.324216 836.341107,150.324216 C820.072389,150.324216 806.023573,147.766382 794.194661,142.650715 C782.365749,137.535048 773.569383,129.989634 767.805563,120.014471 C762.048146,110.079093 759.06613,98.8337045 759.159833,87.410828 C759.091701,74.7644809 762.48794,62.3315615 768.994797,51.4070903 C775.196298,40.6079571 784.568135,31.8819936 795.895265,26.3605057 C807.288125,20.7868352 820.302307,18 834.937811,18 C847.353412,18 858.393466,20.2473226 868.057973,24.7419677 C877.231856,28.816871 884.945719,35.493588 890.201506,43.9082524 C895.296495,52.0830243 897.964981,61.4858693 897.907741,71.0624297 C897.95605,82.640682 893.847805,93.8674411 886.300819,102.781117 C876.596671,114.704735 864.149358,120.666544 848.958878,120.666544 C844.867913,120.666544 841.787798,120.002827 839.718531,118.675393 C837.626478,117.32487 836.141475,115.241757 835.568105,112.853314 C830.161769,117.921047 822.954371,120.731314 815.470054,120.689833 C807.869185,120.924162 800.503758,118.090837 795.098479,112.853314 C789.699357,107.60568 786.999796,100.619185 786.999796,91.893829 C786.951425,81.2625615 790.395229,70.8977373 796.822868,62.3293109 C804.703524,51.5002436 814.808047,46.0895914 827.136437,46.0973541 C835.897126,46.0973541 842.374487,49.202463 846.568518,55.4126808 L848.423723,47.7741129 L867.939049,47.7741129 L856.772144,97.1104119 C856.262765,99.094519 855.916777,101.115441 855.73751,103.15373 C855.662944,104.092318 855.970775,105.021657 856.593759,105.738733 C857.116248,106.295193 857.855392,106.608382 858.627349,106.600401 C861.005816,106.600401 864.062147,105.269086 867.796341,102.606455 C872.950098,98.9785402 877.132028,94.1847942 879.985988,88.6334646 C883.028017,83.0156222 884.627988,76.7572902 884.647784,70.3987126 C884.826643,59.5080234 879.997555,49.1151465 871.494858,42.0917637 C862.718313,34.4997724 850.469205,30.7037768 834.747534,30.7037768 C821.356761,30.6882512 810.011471,33.2305591 800.711662,38.3307005 C791.63549,43.1837754 784.306498,50.6566191 779.721686,59.7326636 C775.093344,68.610323 772.672902,78.4331646 772.657637,88.4005815 C772.568376,97.7742457 775.307054,106.965154 780.530365,114.821177 C785.81219,122.778391 793.56084,128.867536 802.638221,132.194261 C812.152091,135.835001 823.005832,137.655371 835.199443,137.655371 C846.988714,137.655371 857.117022,136.133868 865.584366,133.090861 C873.525289,130.38457 880.580361,125.643974 886.015403,119.362399 Z M806.098891,91.090382 C806.098891,96.9124612 807.367407,101.181986 809.90444,103.898956 C812.276222,106.617247 815.767643,108.151325 819.41831,108.079209 C822.178085,108.092836 824.897242,107.428235 827.326715,106.146279 C829.436917,105.058214 831.317378,103.5884 832.868544,101.814652 C835.940971,98.2175212 838.242277,94.0515265 839.635285,89.5649973 C841.434434,84.7566583 842.399142,79.6874336 842.489446,74.5673213 C842.489446,69.3895522 841.193181,65.4111315 838.600651,62.632059 C836.121943,59.8955164 832.535822,58.3699838 828.801365,58.4634503 C824.435612,58.5124747 820.244069,60.1474631 817.039842,63.0512487 C813.143605,66.5740243 810.326836,71.0900251 808.905483,76.0927061 C807.217736,80.9268669 806.287512,85.9834377 806.146461,91.090382 L806.098891,91.090382 Z" id="Shape" fill="#A85260" fill-rule="nonzero"></path>
            <path d="M364.89,131.23 L356.29,87.1 C353.6845,86.1534627 351.814855,83.845259 351.43,81.1 L342,78.81 L342,133.48 L362,134.79 C362.570972,133.332422 363.580896,132.088364 364.89,131.23 Z" id="Path" fill="#BAD2F8"></path>
            <path d="M388.78,30.56 L409.24,30.56 C411.03,30.56 412.67,30.65 414.18,30.8 L433.31,15.25 C433.266441,14.9385019 433.243058,14.6245142 433.24,14.31 C433.241412,13.254834 433.466351,12.2119384 433.9,11.25 L422,0.18 L352.13,0.18 L342,2.39 L342,71.85 L353.6,74.68 C355.829692,72.5019348 359.175213,71.9323996 362,73.25 L388.8,51.46 L388.78,30.56 Z" id="Path" fill="#BAD2F8"></path>
            <path d="M473,83.72 C467.92,77.4066667 459.99,72.9566667 449.21,70.37 C452.164872,69.3616971 455.014901,68.0689695 457.72,66.51 L441.63,62.59 L478.63,120.86 C479.990648,116.541959 480.665518,112.037204 480.63,107.51 C480.65,97.9566667 478.106667,90.0266667 473,83.72 Z" id="Path" fill="#BAD2F8"></path>
            <path d="M475.34,128.29 L435.24,65.08 C434.908469,65.1257471 434.574588,65.1524576 434.24,65.16 C432.214952,65.1592958 430.276961,64.3364617 428.87,62.88 L370.5,81.13 L388.78,91.13 L388.78,87.53 L412.31,87.53 C420.43,87.53 426.096667,88.8633333 429.31,91.53 C432.511805,94.137847 434.309898,98.0929127 434.17,102.22 C434.342413,106.478523 432.612945,110.593337 429.45,113.45 L452.57,126.14 C454.714868,123.997797 457.938421,123.357418 460.739235,124.51713 C463.540049,125.676842 465.367334,128.408583 465.37,131.44 C465.37,131.67 465.37,131.9 465.37,132.12 L470,135.6 C472.013147,133.427682 473.780503,131.039907 475.27,128.48 C475.298923,128.418868 475.322349,128.355284 475.34,128.29 Z" id="Path" fill="#BAD2F8"></path>
            <path d="M439.22,7 C439.720014,6.89579324 440.229248,6.84218962 440.74,6.84 C444.074999,6.84462645 447.007446,9.04803437 447.94,12.25 L464.45,13.32 C463.7,12.51 462.93,11.72 462.09,10.95 C454.93,4.31666667 444.9,0.746666667 432,0.24 L439.22,7 Z" id="Path" fill="#BAD2F8"></path>
            <path d="M445.8,147.69 L452.28,136.46 C451.369099,135.417771 450.763531,134.144348 450.53,132.78 L421.86,117 C418.755509,117.643874 415.590318,117.948993 412.42,117.91 L388.78,117.91 L388.78,98.88 L364.15,85.36 C363.802998,85.7043822 363.4247,86.0157246 363.02,86.29 L371.62,130.42 C374.566426,131.491543 376.53369,134.284818 376.55,137.42 C376.552446,138.376201 376.369046,139.323765 376.01,140.21 L388.34,150.14 L422,150.14 C425.413333,150.14 432.34,149.456667 442.78,148.09 C443.84,148 444.83,147.85 445.8,147.69 Z" id="Path" fill="#BAD2F8"></path>
            <path d="M464.59,61.22 C464.87,60.93 465.16,60.64 465.42,60.34 C468.855289,56.4398216 471.313006,51.7780442 472.59,46.74 L445.31,56.52 L464.59,61.22 Z" id="Path" fill="#BAD2F8"></path>
            <path d="M461.77,137.94 C460.814234,138.50244 459.744822,138.844105 458.64,138.94 L454.81,145.57 C456.751568,144.970418 458.625095,144.169393 460.4,143.18 C461.960782,142.27946 463.460683,141.277299 464.89,140.18 L461.77,137.94 Z" id="Path" fill="#BAD2F8"></path>
            <path d="M370.82,144.75 C370.239752,144.886211 369.646012,144.956655 369.05,144.96 C366.539635,144.961186 364.196071,143.703023 362.81,141.61 L342,140.26 L342,150.18 L377.54,150.18 L370.82,144.75 Z" id="Path" fill="#BAD2F8"></path>
            <path d="M440.74,21.81 C439.469534,21.8121697 438.219734,21.4885299 437.11,20.87 L422.19,33 C422.835904,33.3513823 423.442643,33.7704012 424,34.25 C426.83,36.7 428.25,40.12 428.25,44.48 C428.25,49.1933333 426.833333,52.79 424,55.27 C421.166667,57.75 416.146667,58.9933333 408.94,59 L390.21,59 L372.48,73.43 L426.82,56.43 C427.243696,53.8370232 428.996757,51.656458 431.438176,50.6856249 C433.879596,49.7147919 436.651369,50.0960527 438.74,51.69 L473.67,39.17 C473.67,38.63 473.67,38.08 473.67,37.52 C473.748255,31.5539454 472.317272,25.6648986 469.51,20.4 L446.62,18.91 C445.208674,20.727526 443.0411,21.7965673 440.74,21.81 Z" id="Path" fill="#BAD2F8"></path>
            <path d="M238.5,128.61 C237.955318,128.73407 237.39863,128.797787 236.84,128.8 C235.656416,128.80074 234.49011,128.516024 233.44,127.97 L211.23,150.18 L256,150.18 L238.5,128.61 Z" id="Path" fill="#BAD2F8"></path>
            <path d="M229.44,122.41 C229.376081,122.043395 229.342633,121.672126 229.34,121.3 C229.34,121.12 229.34,120.94 229.34,120.76 L205.52,108.66 L205.52,146.29 L229.44,122.41 Z" id="Path" fill="#BAD2F8"></path>
            <path d="M297.44,138.59 C296.392101,137.27033 295.821186,135.635117 295.82,133.95 C295.805054,133.690215 295.805054,133.429785 295.82,133.17 L274.74,116.17 L252,116.17 L252,97.87 L230.82,80.81 L238.08,113.91 C241.692836,114.511462 244.340824,117.637441 244.34,121.3 C244.342289,122.333072 244.12766,123.355117 243.71,124.3 L264.71,150.17 L292.25,150.17 L297.44,138.59 Z" id="Path" fill="#BAD2F8"></path>
            <path d="M231.2,114.1 L223.41,78.6 C222.226452,78.4573867 221.094596,78.032083 220.11,77.36 L205.55,83.08 L205.55,101.08 L231.2,114.1 Z" id="Path" fill="#BAD2F8"></path>
            <path d="M220.92,64.49 C221.979818,63.9519697 223.151434,63.6710558 224.34,63.67 C224.715166,63.6693237 225.089756,63.6994246 225.46,63.76 L252,37.22 L252,32.22 L257,32.22 L274.76,14.46 C274.638716,13.9251945 274.578331,13.3783832 274.58,12.83 C274.582517,9.80876689 276.397587,7.08402585 279.184606,5.9176716 C281.971624,4.75131735 285.186364,5.37110673 287.34,7.49 L320.59,0.18 L205.59,0.18 L205.59,50.67 L220.92,64.49 Z" id="Path" fill="#BAD2F8"></path>
            <path d="M309.53,138.15 C308.176044,140.147021 305.941946,141.368328 303.53,141.43 L299.64,150.18 L332,150.18 L332,139.61 L309.53,138.15 Z" id="Path" fill="#BAD2F8"></path>
            <path d="M310.38,131.42 L332,132.83 L332,116.21 L285.57,116.21 L299.57,127.47 C301.494414,126.346583 303.819112,126.138355 305.912543,126.901887 C308.005974,127.66542 309.650738,129.321419 310.4,131.42 L310.38,131.42 Z" id="Path" fill="#BAD2F8"></path>
            <path d="M324.14,74.45 L316.65,72.63 C315.213921,74.4068509 313.045404,75.4311144 310.76086,75.4116383 C308.476316,75.3921622 306.325576,74.3310764 304.92,72.53 L233.84,74.53 L252,89.19 L252,86.64 L324.13,86.64 L324.14,74.45 Z" id="Path" fill="#BAD2F8"></path>
            <path d="M282.1,20.31 C281.067965,20.3122235 280.046606,20.1011426 279.1,19.69 L266.59,32.2 L329.77,32.2 L329.77,5.08 L289.51,13.92 C288.960826,17.5897814 285.810643,20.306336 282.1,20.31 Z" id="Path" fill="#BAD2F8"></path>
            <path d="M231,67.77 L231,67.87 L303.56,65.8 C304.502624,62.5643543 307.490177,60.3567192 310.859976,60.405726 C314.229774,60.4547327 317.151867,62.7483114 318,66.01 L324.07,67.49 L324.07,56 L252,56 L252,46.78 L231,67.77 Z" id="Path" fill="#BAD2F8"></path>
            <polygon id="Path" fill="#BAD2F8" points="55.28 103.91 75.08 144.05 83.86 110.11"></polygon>
            <path d="M165.12,100.88 C163.79658,100.889316 162.494816,100.54402 161.35,99.88 L137.25,113.79 C137.340008,114.088366 137.410162,114.392364 137.46,114.7 L169.46,127.25 L172.46,112.49 L165.75,100.87 C165.57,100.87 165.34,100.88 165.12,100.88 Z" id="Path" fill="#BAD2F8"></path>
            <path d="M24.5,67.9 C24.4280963,67.8280492 24.3612693,67.7511981 24.3,67.67 L14.3,68.67 L17.73,85.22 L24.5,67.9 Z" id="Path" fill="#BAD2F8"></path>
            <path d="M11.48,55.21 L12.9,62 L22.55,61 C22.55,60.85 22.62,60.7 22.66,60.56 L11.48,55.21 Z" id="Path" fill="#BAD2F8"></path>
            <path d="M30.42,71.34 L20.22,97.34 L22.87,110.16 L41.56,99.36 C41.56,99.2 41.56,99.04 41.56,98.87 C41.5590273,97.7027076 41.8330986,96.5516081 42.36,95.51 L30.42,71.34 Z" id="Path" fill="#BAD2F8"></path>
            <path d="M171.53,97.26 L174.53,102.49 L176.14,94.62 L172.03,96.23 C171.893346,96.5871089 171.726056,96.9317269 171.53,97.26 Z" id="Path" fill="#BAD2F8"></path>
            <path d="M49,91.38 C49.22,91.38 49.43,91.38 49.65,91.38 L55.35,81.5 L50.58,54.17 L37.32,61.83 C37.3355264,62.1097848 37.3355264,62.3902152 37.32,62.67 C37.3192791,64.2787713 36.7964168,65.8438491 35.83,67.13 L47.83,91.48 C48.2167035,91.4154737 48.6079552,91.3820333 49,91.38 Z" id="Path" fill="#BAD2F8"></path>
            <polygon id="Path" fill="#BAD2F8" points="188.36 35.21 195.56 0.18 154.76 0.18 154.03 4.33"></polygon>
            <path d="M81.21,36.81 C80.9851059,36.4364573 80.7911265,36.045154 80.63,35.64 L68.78,33.9 L57.43,78 L81.21,36.81 Z" id="Path" fill="#BAD2F8"></path>
            <path d="M27.64,55.5 C28.3623943,55.2779774 29.1142641,55.1667142 29.87,55.17 C31.1800523,55.1663603 32.4674622,55.5115104 33.6,56.17 L49.33,47.08 L41.09,0.18 L0.08,0.18 L9.76,46.87 L27.64,55.5 Z" id="Path" fill="#BAD2F8"></path>
            <path d="M87.5,25.4 L87.6,25.4 C89.2288461,25.4014092 90.8125926,25.9351774 92.11,26.92 L120.93,10.28 L118.32,0.18 L77.46,0.18 L76.64,3.37 L87.5,25.4 Z" id="Path" fill="#BAD2F8"></path>
            <path d="M135.47,121.16 C134.064326,122.632748 132.1159,123.464173 130.08,123.46 C129.500899,123.45943 128.923781,123.392323 128.36,123.26 L118.82,136.26 L122.42,150.13 L164.76,150.13 L168.09,134 L135.47,121.16 Z" id="Path" fill="#BAD2F8"></path>
            <path d="M49,106.38 C47.5822437,106.37056 46.1958744,105.961582 45,105.2 L24.32,117.14 L31.16,150.14 L70.56,150.14 L49,106.38 Z" id="Path" fill="#BAD2F8"></path>
            <path d="M81.51,28.53 L74.05,13.41 L70.48,27.31 L81.26,28.9 C81.34,28.77 81.42,28.65 81.51,28.53 Z" id="Path" fill="#BAD2F8"></path>
            <path d="M95.09,33 C95.0949725,33.0699117 95.0949725,33.1400883 95.09,33.21 L129.41,43.08 L122.69,17.08 L95.09,33 Z" id="Path" fill="#BAD2F8"></path>
            <path d="M116.63,127.85 L123.17,118.9 C123.17,118.81 123.11,118.71 123.07,118.62 L113.7,116.62 L116.63,127.85 Z" id="Path" fill="#BAD2F8"></path>
            <polygon id="Path" fill="#BAD2F8" points="183.54 58.71 186.78 42.88 152.65 12.18 146.34 47.95"></polygon>
            <path d="M145.16,54.65 L140,84 L131.38,50.64 L91.59,39.24 C90.39119,39.9915228 89.0048964,40.3900822 87.59,40.39 C87.3833333,40.39 87.1733333,40.39 86.96,40.39 L55.44,95 C55.8634386,95.6920552 56.1708299,96.4487108 56.35,97.24 L85.55,103.58 L97.91,55.74 L111.8,109.26 L123.8,111.86 C125.186088,109.740215 127.54727,108.461868 130.08,108.46 C130.843297,108.463316 131.601763,108.581299 132.33,108.81 L157.66,94.18 C157.644749,93.9135514 157.644749,93.6464486 157.66,93.38 C157.654543,90.0711183 159.820943,87.150728 162.989136,86.1961194 C166.15733,85.2415109 169.576513,86.4789089 171.4,89.24 L177.83,86.72 L182.21,65.35 L145.16,54.65 Z" id="Path" fill="#BAD2F8"></path>
            <polygon id="Path" fill="#BAD2F8" points="214.26 67.59 205.56 59.77 205.56 65.08"></polygon>
            <polygon id="Path" fill="#BAD2F8" points="205.56 72.11 205.56 75.81 210.98 73.68"></polygon>
        </g>
    </g>
</svg>